<?xml version="1.0" standalone="no"?>
<!DOCTYPE svg PUBLIC "-//W3C//DTD SVG 20010904//EN"
 "http://www.w3.org/TR/2001/REC-SVG-20010904/DTD/svg10.dtd">
<svg version="1.0" xmlns="http://www.w3.org/2000/svg"
 width="700.000000pt" height="700.000000pt" viewBox="0 0 700.000000 700.000000"
 preserveAspectRatio="xMidYMid meet">
<metadata>
Created by potrace 1.11, written by Peter Selinger 2001-2013
</metadata>
<g transform="translate(0.000000,700.000000) scale(0.100000,-0.100000)"
fill="#000000" stroke="none">
<path d="M3620 6059 c-39 -35 -148 -136 -294 -272 -135 -126 -388 -362 -417
-388 -38 -34 -226 -210 -444 -414 -65 -60 -129 -121 -144 -134 -100 -91 -251
-235 -251 -240 0 -7 54 -68 260 -291 14 -15 63 -69 110 -120 47 -51 99 -107
115 -125 17 -17 57 -61 89 -96 49 -53 193 -207 341 -364 17 -17 50 -54 75 -81
292 -322 378 -408 380 -381 0 1 3 27 5 57 3 30 10 102 16 160 5 58 12 125 14
150 2 25 7 68 10 95 3 28 8 66 10 85 5 40 12 123 20 230 3 41 7 91 10 110 2
19 7 71 10 115 3 44 7 96 10 115 2 19 7 71 10 115 6 82 12 155 20 235 2 25 7
77 10 115 22 252 27 310 30 326 2 8 6 55 10 105 3 49 8 105 10 124 3 19 7 67
10 105 3 39 8 88 10 110 2 22 7 78 10 125 3 47 8 105 10 130 3 25 8 111 11
193 8 169 7 171 -66 106z"/>
<path d="M6007 4783 c-3 -3 -501 -16 -1052 -28 -509 -11 -843 -21 -1070 -31
-77 -4 -148 -6 -157 -6 -11 0 -20 -9 -25 -26 -8 -32 -8 -459 0 -519 8 -58 17
-72 120 -187 119 -131 668 -681 730 -730 l47 -38 48 38 c43 36 86 75 324 305
81 79 540 528 969 949 187 184 209 213 194 259 -6 19 -13 21 -66 19 -33 -1
-61 -3 -62 -5z m-695 -219 c79 -41 118 -166 76 -247 -43 -85 -115 -124 -207
-113 -73 9 -129 64 -152 149 -24 91 28 192 114 221 44 15 131 10 169 -10z"/>
<path d="M3657 3803 c-16 -54 -26 -163 -42 -438 -3 -55 -8 -125 -10 -155 -6
-78 -14 -201 -20 -300 -3 -47 -7 -114 -10 -150 -6 -85 -15 -218 -20 -300 -15
-246 -29 -435 -40 -560 -3 -30 -7 -86 -10 -125 -7 -95 -14 -181 -19 -235 -3
-25 -8 -83 -11 -130 -4 -47 -9 -96 -11 -110 -10 -55 -16 -408 -8 -423 9 -16 5
-20 159 120 90 83 435 408 785 743 20 19 117 112 215 205 99 94 235 225 304
292 l125 121 -27 34 c-28 36 -70 81 -216 234 -106 111 -355 373 -421 444 -23
25 -92 98 -154 163 -61 66 -127 136 -146 156 -229 247 -354 376 -397 414 -21
18 -21 18 -26 0z"/>
<path d="M2406 3708 c-55 -51 -130 -122 -167 -158 -319 -310 -563 -547 -610
-591 -421 -402 -703 -679 -696 -685 12 -12 2403 -1 2415 11 7 7 10 45 17 234
3 97 8 221 10 276 l4 100 -115 120 c-63 66 -179 187 -257 270 -78 82 -223 232
-322 333 l-180 183 -99 -93z"/>
</g>
</svg>
